name ./resultDataOpenSim/trcMotMarkerGrf/sub06/grf-02-06.mot
datacolumns 19
datarows 30
range 0.49600000 0.61200000
endheader

                time	     ground_force_vx	     ground_force_vy	     ground_force_vz	     ground_force_px	     ground_force_py	     ground_force_pz	   l_ground_force_vx	   l_ground_force_vy	   l_ground_force_vz	   l_ground_force_px	   l_ground_force_py	   l_ground_force_pz	     ground_torque_x	     ground_torque_y	     ground_torque_z	   l_ground_torque_x	   l_ground_torque_y	   l_ground_torque_z	
          0.49600000	        103.10878772	        626.86960877	        -31.16114980	         -0.79734954	          0.00000000	          0.10018266	          0.00000000	          0.00000000	          0.00000000	          0.00000000	          0.00000000	          0.00000000	          0.00000000	          1.15606590	          0.00000000	          0.00000000	          0.00000000	          0.00000000	
          0.50000000	        107.55972121	        644.51106540	        -29.82630502	         -0.79601284	          0.00000000	          0.09977904	          0.00000000	          0.00000000	          0.00000000	          0.00000000	          0.00000000	          0.00000000	          0.00000000	          1.36987091	          0.00000000	          0.00000000	          0.00000000	          0.00000000	
          0.50400000	        112.29165173	        661.64881519	        -28.81402611	         -0.79479332	          0.00000000	          0.09939319	          0.00000000	          0.00000000	          0.00000000	          0.00000000	          0.00000000	          0.00000000	          0.00000000	          1.56195949	          0.00000000	          0.00000000	          0.00000000	          0.00000000	
          0.50800000	        117.45930128	        678.17613002	        -28.17846851	         -0.79369276	          0.00000000	          0.09902809	          0.00000000	          0.00000000	          0.00000000	          0.00000000	          0.00000000	          0.00000000	          0.00000000	          1.71799070	          0.00000000	          0.00000000	          0.00000000	          0.00000000	
          0.51200000	        123.16402943	        693.95715250	        -27.88690091	         -0.79270801	          0.00000000	          0.09868637	          0.00000000	          0.00000000	          0.00000000	          0.00000000	          0.00000000	          0.00000000	          0.00000000	          1.83235881	          0.00000000	          0.00000000	          0.00000000	          0.00000000	
          0.51600000	        129.43382295	        708.82366146	        -27.83495804	         -0.79183047	          0.00000000	          0.09837403	          0.00000000	          0.00000000	          0.00000000	          0.00000000	          0.00000000	          0.00000000	          0.00000000	          1.90821638	          0.00000000	          0.00000000	          0.00000000	          0.00000000	
          0.52000000	        136.22768591	        722.61188672	        -27.87221280	         -0.79105508	          0.00000000	          0.09809019	          0.00000000	          0.00000000	          0.00000000	          0.00000000	          0.00000000	          0.00000000	          0.00000000	          1.95522712	          0.00000000	          0.00000000	          0.00000000	          0.00000000	
          0.52400000	        143.46246105	        735.19281813	        -27.83765860	         -0.79038285	          0.00000000	          0.09782853	          0.00000000	          0.00000000	          0.00000000	          0.00000000	          0.00000000	          0.00000000	          0.00000000	          1.98582544	          0.00000000	          0.00000000	          0.00000000	          0.00000000	
          0.52800000	        151.04277894	        746.46221545	        -27.59640433	         -0.78980566	          0.00000000	          0.09758353	          0.00000000	          0.00000000	          0.00000000	          0.00000000	          0.00000000	          0.00000000	          0.00000000	          2.01111810	          0.00000000	          0.00000000	          0.00000000	          0.00000000	
          0.53200000	        158.87660871	        756.30744933	        -27.06690628	         -0.78929938	          0.00000000	          0.09735503	          0.00000000	          0.00000000	          0.00000000	          0.00000000	          0.00000000	          0.00000000	          0.00000000	          2.03757129	          0.00000000	          0.00000000	          0.00000000	          0.00000000	
          0.53600000	        166.87931046	        764.58467389	        -26.23593042	         -0.78883434	          0.00000000	          0.09714845	          0.00000000	          0.00000000	          0.00000000	          0.00000000	          0.00000000	          0.00000000	          0.00000000	          2.06527214	          0.00000000	          0.00000000	          0.00000000	          0.00000000	
          0.54000000	        174.97492350	        771.12588184	        -25.16245276	         -0.78838625	          0.00000000	          0.09697166	          0.00000000	          0.00000000	          0.00000000	          0.00000000	          0.00000000	          0.00000000	          0.00000000	          2.08801341	          0.00000000	          0.00000000	          0.00000000	          0.00000000	
          0.54400000	        183.09445016	        775.76659118	        -23.96726836	         -0.78793862	          0.00000000	          0.09683047	          0.00000000	          0.00000000	          0.00000000	          0.00000000	          0.00000000	          0.00000000	          0.00000000	          2.09495008	          0.00000000	          0.00000000	          0.00000000	          0.00000000	
          0.54800000	        191.16850266	        778.37212204	        -22.80676750	         -0.78748372	          0.00000000	          0.09672872	          0.00000000	          0.00000000	          0.00000000	          0.00000000	          0.00000000	          0.00000000	          0.00000000	          2.07325468	          0.00000000	          0.00000000	          0.00000000	          0.00000000	
          0.55200000	        199.11876281	        778.85406489	        -21.83788383	         -0.78701354	          0.00000000	          0.09666830	          0.00000000	          0.00000000	          0.00000000	          0.00000000	          0.00000000	          0.00000000	          0.00000000	          2.01108363	          0.00000000	          0.00000000	          0.00000000	          0.00000000	
          0.55600000	        206.85764244	        777.17849471	        -21.18311328	         -0.78651609	          0.00000000	          0.09664855	          0.00000000	          0.00000000	          0.00000000	          0.00000000	          0.00000000	          0.00000000	          0.00000000	          1.90022017	          0.00000000	          0.00000000	          0.00000000	          0.00000000	
          0.56000000	        214.29971064	        773.36125943	        -20.90267772	         -0.78598313	          0.00000000	          0.09666517	          0.00000000	          0.00000000	          0.00000000	          0.00000000	          0.00000000	          0.00000000	          0.00000000	          1.73791071	          0.00000000	          0.00000000	          0.00000000	          0.00000000	
          0.56400000	        221.37618246	        767.44476592	        -20.98092672	         -0.78541552	          0.00000000	          0.09670980	          0.00000000	          0.00000000	          0.00000000	          0.00000000	          0.00000000	          0.00000000	          0.00000000	          1.52759651	          0.00000000	          0.00000000	          0.00000000	          0.00000000	
          0.56800000	        228.03935935	        759.46813034	        -21.33076780	         -0.78482215	          0.00000000	          0.09677229	          0.00000000	          0.00000000	          0.00000000	          0.00000000	          0.00000000	          0.00000000	          0.00000000	          1.27843387	          0.00000000	          0.00000000	          0.00000000	          0.00000000	
          0.57200000	        234.25424001	        749.45122596	        -21.81225622	         -0.78421500	          0.00000000	          0.09684120	          0.00000000	          0.00000000	          0.00000000	          0.00000000	          0.00000000	          0.00000000	          0.00000000	          1.00369722	          0.00000000	          0.00000000	          0.00000000	          0.00000000	
          0.57600000	        239.98658811	        737.39214780	        -22.25723549	         -0.78360509	          0.00000000	          0.09690208	          0.00000000	          0.00000000	          0.00000000	          0.00000000	          0.00000000	          0.00000000	          0.00000000	          0.71836707	          0.00000000	          0.00000000	          0.00000000	          0.00000000	
          0.58000000	        245.19395298	        723.25904182	        -22.49579729	         -0.78300495	          0.00000000	          0.09693978	          0.00000000	          0.00000000	          0.00000000	          0.00000000	          0.00000000	          0.00000000	          0.00000000	          0.43638289	          0.00000000	          0.00000000	          0.00000000	          0.00000000	
          0.58400000	        249.81454609	        706.96919668	        -22.38260319	         -0.78243340	          0.00000000	          0.09694001	         -4.97234981	         17.16009088	         -2.75664475	         -0.11593640	         -0.02500000	         -0.00289349	          0.00000000	          0.16814765	          0.00000000	          0.00000000	         -0.07494113	          0.00000000	
          0.58800000	        253.74736050	        688.36612112	        -21.81613167	         -0.78191880	          0.00000000	          0.09689302	        -15.01993206	        161.06821694	         -9.21257153	         -0.11159573	         -0.02500000	         -0.00353018	          0.00000000	         -0.08111759	          0.00000000	          0.00000000	         -0.21140749	          0.00000000	
          0.59200000	        256.82499788	        667.20667434	        -20.74362529	         -0.78148940	          0.00000000	          0.09679231	        -26.96210486	        292.01088808	        -15.09053074	         -0.10804913	         -0.02500000	         -0.00399264	          0.00000000	         -0.31168265	          0.00000000	          0.00000000	         -0.34709203	          0.00000000	
          0.59600000	        258.78677558	        643.16968588	        -19.15463527	         -0.78115889	          0.00000000	          0.09663475	        -42.39798709	        399.68129027	        -19.72625990	         -0.10485176	         -0.02500000	         -0.00435406	          0.00000000	         -0.52804648	          0.00000000	          0.00000000	         -0.47571035	          0.00000000	
          0.60000000	        259.27290971	        615.87699724	        -17.07589800	         -0.78092478	          0.00000000	          0.09641880	        -62.26004961	        481.05428229	        -22.10348563	         -0.10164332	         -0.02500000	         -0.00474106	          0.00000000	         -0.73622216	          0.00000000	          0.00000000	         -0.58987947	          0.00000000	
          0.60400000	        257.86714625	        584.89951793	        -14.57136885	         -0.78077273	          0.00000000	          0.09615163	        -85.76481754	        540.04794679	        -21.31736030	         -0.09803768	         -0.02500000	         -0.00527611	          0.00000000	         -0.94006466	          0.00000000	          0.00000000	         -0.68159871	          0.00000000	
          0.60800000	        254.15888502	        549.80671494	        -11.73038798	         -0.78067142	          0.00000000	          0.09587402	       -110.26369392	        582.99664935	        -17.17769422	         -0.09387742	         -0.02500000	         -0.00593173	          0.00000000	         -1.13753123	          0.00000000	          0.00000000	         -0.74175202	          0.00000000	
          0.61200000	        247.76279102	        510.36598744	         -8.63554640	         -0.78055813	          0.00000000	          0.09563171	       -132.51777936	        614.37661098	        -10.49163742	         -0.08938913	         -0.02500000	         -0.00661141	          0.00000000	         -1.31816981	          0.00000000	          0.00000000	         -0.75843586	          0.00000000	
